<svg width="32" height="32" viewBox="0 0 32 32" fill="none" xmlns="http://www.w3.org/2000/svg">
  <defs>
    <linearGradient id="glassGradient" x1="0%" y1="0%" x2="100%" y2="100%">
      <stop offset="0%" style="stop-color: #3B82F6" />
      <stop offset="100%" style="stop-color: #2563EB" />
    </linearGradient>
    <linearGradient id="handleGradient" x1="0%" y1="0%" x2="100%" y2="100%">
      <stop offset="0%" style="stop-color: #2563EB" />
      <stop offset="100%" style="stop-color: #1D4ED8" />
    </linearGradient>
  </defs>
  
  <!-- 放大镜主体 -->
  <g transform="translate(2, 2)">
    <!-- 放大镜镜片 -->
    <circle cx="12" cy="12" r="10" fill="none" stroke="url(#glassGradient)" stroke-width="2.5"/>
    
    <!-- 镜片内部效果 -->
    <circle cx="12" cy="12" r="8.5" fill="#3B82F6" opacity="0.08"/>
    <circle cx="12" cy="12" r="7" fill="none" stroke="#3B82F6" stroke-width="0.5" opacity="0.3"/>
    
    <!-- 放大镜手柄 -->
    <line x1="20.5" y1="20.5" x2="26" y2="26" stroke="url(#handleGradient)" stroke-width="2.5" stroke-linecap="round"/>
    
    <!-- AI元素 - 在镜片内 -->
    <g transform="translate(12, 12)" opacity="0.8">
      <!-- 中央AI核心 -->
      <circle cx="0" cy="0" r="2.5" fill="#3B82F6" opacity="0.6"/>
      <circle cx="0" cy="0" r="1.2" fill="#ffffff"/>
      
      <!-- AI神经网络连接点 -->
      <circle cx="-3.5" cy="-3.5" r="0.8" fill="#3B82F6" opacity="0.7"/>
      <circle cx="3.5" cy="-3.5" r="0.8" fill="#3B82F6" opacity="0.7"/>
      <circle cx="-3.5" cy="3.5" r="0.8" fill="#3B82F6" opacity="0.7"/>
      <circle cx="3.5" cy="3.5" r="0.8" fill="#3B82F6" opacity="0.7"/>
      
      <!-- 神经网络连接线 -->
      <path d="M-3.5,-3.5 L0,0 L3.5,-3.5 M-3.5,3.5 L0,0 L3.5,3.5" 
            stroke="#3B82F6" stroke-width="0.8" opacity="0.5"/>
    </g>
    
    <!-- 文档校对符号 -->
    <g transform="translate(17, 7)" opacity="0.9">
      <!-- 文档页面 -->
      <rect x="0" y="0" width="5" height="6.5" rx="0.8" fill="#ffffff" stroke="#3B82F6" stroke-width="0.4"/>
      <!-- 文本行 -->
      <line x1="0.8" y1="1.5" x2="4.2" y2="1.5" stroke="#3B82F6" stroke-width="0.4" opacity="0.6"/>
      <line x1="0.8" y1="2.8" x2="3.5" y2="2.8" stroke="#3B82F6" stroke-width="0.4" opacity="0.6"/>
      <line x1="0.8" y1="4.1" x2="4.2" y2="4.1" stroke="#3B82F6" stroke-width="0.4" opacity="0.6"/>
      <!-- 校对勾号 -->
      <path d="M1.5 5.2 L2.3 6 L4 4.3" stroke="#10B981" stroke-width="0.8" stroke-linecap="round" fill="none"/>
    </g>
  </g>
</svg>